<svg width="13" height="12" viewBox="0 0 13 12" fill="none" xmlns="http://www.w3.org/2000/svg">
<path d="M5.13962 11.7689C5.01959 11.9177 4.86375 12 4.70218 12C4.54061 12 4.38477 11.9177 4.26474 11.7689L0.771536 7.31213C0.686093 7.20675 0.617753 7.07778 0.570967 6.93364C0.524181 6.7895 0.5 6.63342 0.5 6.47557C0.5 6.31772 0.524181 6.16164 0.570967 6.0175C0.617753 5.87336 0.686093 5.7444 0.771536 5.63901L1.20898 5.08083C1.38892 4.8574 1.62272 4.73372 1.86514 4.73372C2.10756 4.73372 2.34136 4.8574 2.5213 5.08083L4.70218 7.86307L10.5945 0.347106C10.7744 0.123679 11.0082 0 11.2506 0C11.493 0 11.7268 0.123679 11.9068 0.347106L12.3442 0.905293C12.4297 1.01068 12.498 1.13964 12.5448 1.28378C12.5916 1.42792 12.6158 1.584 12.6158 1.74185C12.6158 1.8997 12.5916 2.05578 12.5448 2.19992C12.498 2.34406 12.4297 2.47302 12.3442 2.57841L5.13962 11.7689Z" fill="white"/>
</svg>
