<svg width="21" height="23" viewBox="0 0 21 23" fill="none" xmlns="http://www.w3.org/2000/svg">
<path d="M16.9125 6.46875H3.8329C3.67363 6.46875 3.51995 6.53397 3.40128 6.65194C3.2826 6.76991 3.20726 6.93233 3.18967 7.10813L2.03911 18.6081C2.02906 18.7086 2.03821 18.8103 2.06595 18.9066C2.09369 19.0028 2.1394 19.0915 2.20011 19.1668C2.26081 19.2422 2.33514 19.3024 2.41823 19.3437C2.50133 19.3849 2.59132 19.4062 2.68234 19.4062H18.0631C18.1541 19.4062 18.2441 19.3849 18.3272 19.3437C18.4103 19.3024 18.4846 19.2422 18.5453 19.1668C18.606 19.0915 18.6517 19.0028 18.6795 18.9066C18.7072 18.8103 18.7163 18.7086 18.7063 18.6081L17.5557 7.10813C17.5381 6.93233 17.4628 6.76991 17.3441 6.65194C17.2255 6.53397 17.0718 6.46875 16.9125 6.46875Z" stroke="white" stroke-width="1.5" stroke-linecap="round" stroke-linejoin="round"/>
<path d="M7.13672 9.34375V6.46875C7.13672 5.51563 7.47765 4.60154 8.0845 3.92759C8.69136 3.25363 9.51443 2.875 10.3727 2.875C11.2309 2.875 12.054 3.25363 12.6608 3.92759C13.2677 4.60154 13.6086 5.51563 13.6086 6.46875V9.34375" stroke="white" stroke-width="1.5" stroke-linecap="round" stroke-linejoin="round"/>
</svg>
